<svg width="36" height="36" xmlns="http://www.w3.org/2000/svg"><g fill="none" fill-rule="evenodd"><path fill="none" d="M0 0h36v36H0z"/><path d="M35 18c0 9.389-7.611 17-17 17S1 27.389 1 18 8.611 1 18 1s17 7.611 17 17" fill="#54B6FF"/><path fill="#FFF" d="M21.051 13.043l2.04-1.631v-2.25h-3.039v10.715h3.038v-5.175zM14.105 13.043l2.039-1.631v-2.25h-3.037v10.715h3.037v-5.175zM17.986 26.838c-3.39 0-6.623-1.59-8.634-4.317l1.828-1.407c1.632 2.138 4.12 3.432 6.806 3.432s5.175-1.294 6.834-3.432l1.828 1.407a10.809 10.809 0 0 1-8.662 4.317"/></g></svg>